<?xml version="1.0" standalone="no"?><!DOCTYPE svg PUBLIC "-//W3C//DTD SVG 1.1//EN" "http://www.w3.org/Graphics/SVG/1.1/DTD/svg11.dtd"><svg t="1614076885234" class="icon" viewBox="0 0 1024 1024" version="1.1" xmlns="http://www.w3.org/2000/svg" p-id="2355" data-darkreader-inline-fill="" xmlns:xlink="http://www.w3.org/1999/xlink" width="5" height="5"><defs><style type="text/css"></style></defs><path d="M512 998.4C245.76 998.4 25.6 778.24 25.6 512S245.76 25.6 512 25.6s486.4 220.16 486.4 486.4-220.16 486.4-486.4 486.4z m0-921.6c-240.64 0-435.2 194.56-435.2 435.2s194.56 435.2 435.2 435.2 435.2-194.56 435.2-435.2-194.56-435.2-435.2-435.2z" p-id="2356"></path><path d="M332.8 384h168.96v56.32h30.72v30.72h-30.72l-5.12 30.72h20.48v25.6h-25.6c0 5.12 0 5.12-5.12 10.24l15.36 10.24c-25.6 15.36-56.32 25.6-81.92 35.84 35.84 0 71.68 0 107.52-5.12 20.48-10.24 40.96-20.48 66.56-35.84l35.84 20.48c-56.32 30.72-122.88 61.44-194.56 81.92 66.56-5.12 133.12-5.12 199.68-10.24-10.24-10.24-20.48-15.36-35.84-25.6l35.84-20.48c46.08 30.72 87.04 56.32 112.64 81.92l-40.96 25.6c-10.24-10.24-25.6-20.48-35.84-30.72-46.08 5.12-87.04 5.12-128 5.12v61.44c0 25.6-15.36 40.96-46.08 40.96H440.32l-10.24-40.96h40.96c10.24 0 15.36-5.12 15.36-15.36v-46.08c-61.44 5.12-117.76 5.12-168.96 5.12l-10.24-40.96h40.96c35.84-10.24 76.8-20.48 117.76-35.84l-117.76 5.12-5.12-35.84c15.36 0 30.72 0 35.84-5.12 20.48 0 46.08-10.24 66.56-25.6 0-5.12 0-10.24 5.12-10.24H302.08c5.12-20.48 10.24-35.84 10.24-56.32h-30.72v-30.72h35.84c0-15.36 5.12-30.72 5.12-40.96-10.24 5.12-15.36 10.24-20.48 15.36l-25.6-30.72c25.6-20.48 51.2-51.2 71.68-87.04l40.96 10.24c-5.12 5.12-10.24 15.36-15.36 20.48h148.48v35.84H353.28l-20.48 20.48z m107.52 327.68c-35.84 20.48-81.92 40.96-138.24 51.2l-20.48-35.84c51.2-10.24 97.28-25.6 133.12-46.08l25.6 30.72zM348.16 501.76h76.8c-20.48-5.12-35.84-15.36-56.32-20.48l10.24-15.36h-25.6l-5.12 35.84zM465.92 409.6H358.4c0 10.24 0 25.6-5.12 35.84h71.68c-15.36-10.24-30.72-15.36-46.08-20.48l10.24-15.36c20.48 5.12 35.84 10.24 51.2 20.48l-10.24 15.36h35.84V409.6z m-10.24 92.16c5.12-10.24 5.12-25.6 10.24-35.84H384c20.48 5.12 35.84 10.24 56.32 20.48l-15.36 15.36h30.72zM563.2 414.72l-25.6 25.6L512 409.6c25.6-25.6 51.2-66.56 66.56-112.64l46.08 10.24c-5.12 15.36-10.24 25.6-15.36 35.84h133.12v35.84h-30.72c-10.24 35.84-25.6 66.56-46.08 92.16 25.6 15.36 51.2 25.6 81.92 40.96l-20.48 40.96c-35.84-15.36-66.56-30.72-92.16-46.08-25.6 20.48-56.32 35.84-92.16 46.08l-20.48-40.96c35.84-10.24 61.44-20.48 81.92-35.84-20.48-20.48-30.72-40.96-40.96-61.44z m174.08 312.32l-25.6 40.96c-46.08-20.48-92.16-35.84-138.24-46.08l25.6-35.84c46.08 5.12 97.28 20.48 138.24 40.96z m-102.4-276.48c15.36-20.48 30.72-40.96 35.84-66.56h-81.92c5.12 20.48 20.48 46.08 46.08 66.56z" p-id="2357"></path></svg>