<?xml version="1.0" standalone="no"?><!DOCTYPE svg PUBLIC "-//W3C//DTD SVG 1.1//EN" "http://www.w3.org/Graphics/SVG/1.1/DTD/svg11.dtd"><svg t="1614319525700" class="icon" viewBox="0 0 1024 1024" version="1.1" xmlns="http://www.w3.org/2000/svg" p-id="2244" data-darkreader-inline-fill="" xmlns:xlink="http://www.w3.org/1999/xlink" width="250" height="250"><defs><style type="text/css"></style></defs><path d="M160.32 405.312c0.448 0 0.832 0.256 1.28 0h91.072v431.232H162.24c-0.768 0-1.408 0.384-2.24 0.384a31.424 31.424 0 0 1-32-30.656V436.096 435.84c0-16.896 14.528-30.592 32.32-30.528z m735.488 65.28c0.128 0.896 0 2.176 0 2.56v1.152a28.8 28.8 0 0 1-0.64 8.96l-69.12 293.632a29.696 29.696 0 0 1-4.352 8.576l-0.448 0.64-1.536 2.304c-7.36 13.824-18.304 25.6-31.936 34.176-15.104 9.216-32.768 14.08-50.752 14.016H315.008V396.16C394.24 371.328 448 301.376 448.384 222.272c0-1.536-0.448-3.008-0.448-4.544-0.832-42.112 29.888-78.848 73.28-87.68 50.176-10.304 99.584 19.904 110.4 67.456h0.512a309.248 309.248 0 0 1-10.688 176.96h178.816c2.048 0.192 4.096 0.64 6.016 1.152 31.168 1.28 59.584 17.216 75.904 42.368 10.112 15.808 14.848 34.176 13.632 52.672z" p-id="2245"></path></svg>