<?xml version="1.0" standalone="no"?><!DOCTYPE svg PUBLIC "-//W3C//DTD SVG 1.1//EN" "http://www.w3.org/Graphics/SVG/1.1/DTD/svg11.dtd"><svg t="1614076921294" class="icon" viewBox="0 0 1024 1024" version="1.1" xmlns="http://www.w3.org/2000/svg" p-id="1900" data-darkreader-inline-fill="" width="250" height="250" xmlns:xlink="http://www.w3.org/1999/xlink"><defs><style type="text/css"></style></defs><path d="M512.1 97.1C283 97.1 97.2 282.9 97.2 512c-0.1 229.2 185.7 415 414.9 415C741.2 927 927 741.2 927 512.1c0-229.2-185.7-415-414.9-415z m251.5 666.5c-32.7 32.7-70.8 58.3-113.1 76.2-43.8 18.5-90.4 28-138.4 28s-94.6-9.4-138.4-28c-42.3-17.9-80.4-43.5-113.1-76.2-32.7-32.7-58.4-70.8-76.2-113.1-18.5-43.8-27.9-90.4-27.9-138.4s9.4-94.6 27.9-138.4c17.9-42.3 43.5-80.4 76.2-113.1 32.7-32.7 70.8-58.4 113.1-76.2 43.8-18.5 90.4-28 138.4-28 48.1 0 94.6 9.4 138.4 27.9 42.3 17.9 80.4 43.5 113.1 76.2 32.7 32.7 58.3 70.8 76.2 113.1 18.5 43.8 27.9 90.4 27.9 138.4s-9.4 94.6-27.9 138.4c-17.9 42.5-43.6 80.5-76.2 113.2z m0 0" fill="" p-id="1901"></path><path d="M465.2 513.9c-5.2-12.4-19.5-18.3-32-13.1l-25.1 10.5v-69.2h34.5c13.5 0 24.4-10.9 24.4-24.4 0-13.5-10.9-24.4-24.4-24.4h-34.5v-45.8c0-13.5-10.9-24.4-24.4-24.4s-24.4 10.9-24.4 24.4v45.8h-34.5c-13.5 0-24.4 10.9-24.4 24.4 0 13.5 10.9 24.4 24.4 24.4h34.5v89.7l-44 18.5c-12.4 5.2-18.3 19.6-13.1 32 3.9 9.4 13 15 22.5 15 3.1 0 6.3-0.6 9.5-1.9l25-10.5v78.5c-11.5 4.5-22.5 7.8-27.3 7.9-12.1-3.7-25.2 2.3-29.9 14.3-5 12.5 1.1 26.7 13.6 31.8 4.7 1.9 10 2.8 16 2.8 9.9 0 21.7-2.6 36.5-7.9 14-5 25.8-10.7 26.3-10.9 8.4-4.1 13.7-12.6 13.7-22V564.3l44-18.4c12.5-5.3 18.4-19.6 13.1-32z m0 0" fill="" p-id="1902"></path><path d="M729 538.8h-47.1v-96.7h22.8c13.5 0 24.4-10.9 24.4-24.4 0-13.5-10.9-24.4-24.4-24.4h-25.1l14.4-37c4.9-12.6-1.3-26.7-13.9-31.6-12.6-4.9-26.7 1.3-31.6 13.9l-21.3 54.7h-46.4l-24.1-55.5c-5.3-12.4-19.8-18.1-32.1-12.7-12.4 5.3-18.1 19.8-12.7 32.1l15.7 36.1H507c-13.5 0-24.4 10.9-24.4 24.4s10.9 24.4 24.4 24.4h19.2c0.8 22.5 1.4 58.9 0 96.6h-38.3c-13.5 0-24.4 10.9-24.4 24.4s10.9 24.4 24.4 24.4H523c-6.6 67.8-19.2 82.2-21.4 84.2-12.7 2.9-21 15.3-18.6 28.2 2.1 11.8 12.4 20.1 24 20.1 1.4 0 2.9-0.2 4.4-0.4 9.6-1.8 23.5-7.7 34.9-26.2 6.3-10.2 11.3-23.1 15.5-39.7 4.5-17.8 7.9-39.9 10.3-66.1h61.2V706c0 13.5 10.9 24.4 24.4 24.4 13.5 0 24.4-10.9 24.4-24.4V587.7h47.1c13.5 0 24.4-10.9 24.4-24.4s-11.1-24.5-24.6-24.5z m-154.1 0c1.4-37.9 0.8-73.6 0-96.6h58.2v96.6h-58.2z m0 0" fill="" p-id="1903"></path></svg>