<?xml version="1.0" standalone="no"?><!DOCTYPE svg PUBLIC "-//W3C//DTD SVG 1.1//EN" "http://www.w3.org/Graphics/SVG/1.1/DTD/svg11.dtd"><svg t="1614309482584" class="icon" viewBox="0 0 1024 1024" version="1.1" xmlns="http://www.w3.org/2000/svg" p-id="7625" data-darkreader-inline-fill="" xmlns:xlink="http://www.w3.org/1999/xlink" width="250" height="250"><defs><style type="text/css"></style></defs><path d="M842.432 105.152a19.2 19.2 0 0 1 3.712 11.392v796.8a19.2 19.2 0 0 1-27.584 17.28L547.648 798.72v145.28h-96v-192l-0.64-0.192 0.64-1.28v-0.704l212.352-418.112-341.12 250.944 85.376 41.536-43.584 85.568-198.08-96.384a19.2 19.2 0 0 1-3.008-32.704l651.968-479.616a19.2 19.2 0 0 1 26.88 4.096zM750.08 374.08l-169.6 333.888 169.6 82.56V374.08z" p-id="7626"></path></svg>